<mxfile host="app.diagrams.net" agent="Mozilla/5.0 (X11; Ubuntu; Linux x86_64; rv:135.0) Gecko/20100101 Firefox/135.0" version="26.0.13">
  <diagram id="C5RBs43oDa-KdzZeNtuy" name="Page-1">
    <mxGraphModel dx="1605" dy="935" grid="1" gridSize="10" guides="1" tooltips="1" connect="1" arrows="1" fold="1" page="1" pageScale="1" pageWidth="827" pageHeight="1169" math="0" shadow="0">
      <root>
        <mxCell id="WIyWlLk6GJQsqaUBKTNV-0" />
        <mxCell id="WIyWlLk6GJQsqaUBKTNV-1" parent="WIyWlLk6GJQsqaUBKTNV-0" />
        <mxCell id="WIyWlLk6GJQsqaUBKTNV-2" value="" style="rounded=0;html=1;jettySize=auto;orthogonalLoop=1;fontSize=11;endArrow=block;endFill=0;endSize=8;strokeWidth=1;shadow=0;labelBackgroundColor=none;edgeStyle=orthogonalEdgeStyle;" parent="WIyWlLk6GJQsqaUBKTNV-1" source="WIyWlLk6GJQsqaUBKTNV-3" edge="1">
          <mxGeometry relative="1" as="geometry">
            <mxPoint x="530" y="210" as="targetPoint" />
          </mxGeometry>
        </mxCell>
        <mxCell id="WIyWlLk6GJQsqaUBKTNV-3" value="Start" style="rounded=1;whiteSpace=wrap;html=1;fontSize=12;glass=0;strokeWidth=1;shadow=0;" parent="WIyWlLk6GJQsqaUBKTNV-1" vertex="1">
          <mxGeometry x="470" y="140" width="120" height="40" as="geometry" />
        </mxCell>
        <mxCell id="wWaZm-dn-pKSRPtOG2xE-2" value="Gerar palavra" style="rounded=1;whiteSpace=wrap;html=1;" vertex="1" parent="WIyWlLk6GJQsqaUBKTNV-1">
          <mxGeometry x="470" y="210" width="120" height="30" as="geometry" />
        </mxCell>
        <mxCell id="wWaZm-dn-pKSRPtOG2xE-11" style="edgeStyle=orthogonalEdgeStyle;rounded=0;orthogonalLoop=1;jettySize=auto;html=1;entryX=0.5;entryY=0;entryDx=0;entryDy=0;" edge="1" parent="WIyWlLk6GJQsqaUBKTNV-1" source="wWaZm-dn-pKSRPtOG2xE-6" target="wWaZm-dn-pKSRPtOG2xE-8">
          <mxGeometry relative="1" as="geometry" />
        </mxCell>
        <mxCell id="wWaZm-dn-pKSRPtOG2xE-6" value="Pedir letra" style="rounded=1;whiteSpace=wrap;html=1;" vertex="1" parent="WIyWlLk6GJQsqaUBKTNV-1">
          <mxGeometry x="470" y="280" width="120" height="40" as="geometry" />
        </mxCell>
        <mxCell id="wWaZm-dn-pKSRPtOG2xE-7" value="" style="endArrow=classic;html=1;rounded=0;exitX=0.5;exitY=1;exitDx=0;exitDy=0;entryX=0.5;entryY=0;entryDx=0;entryDy=0;" edge="1" parent="WIyWlLk6GJQsqaUBKTNV-1" source="wWaZm-dn-pKSRPtOG2xE-2" target="wWaZm-dn-pKSRPtOG2xE-6">
          <mxGeometry width="50" height="50" relative="1" as="geometry">
            <mxPoint x="700" y="420" as="sourcePoint" />
            <mxPoint x="750" y="370" as="targetPoint" />
          </mxGeometry>
        </mxCell>
        <mxCell id="wWaZm-dn-pKSRPtOG2xE-14" style="edgeStyle=orthogonalEdgeStyle;rounded=0;orthogonalLoop=1;jettySize=auto;html=1;entryX=0.5;entryY=0;entryDx=0;entryDy=0;" edge="1" parent="WIyWlLk6GJQsqaUBKTNV-1" source="wWaZm-dn-pKSRPtOG2xE-8" target="wWaZm-dn-pKSRPtOG2xE-13">
          <mxGeometry relative="1" as="geometry" />
        </mxCell>
        <mxCell id="wWaZm-dn-pKSRPtOG2xE-15" value="Sim" style="edgeLabel;html=1;align=center;verticalAlign=middle;resizable=0;points=[];" vertex="1" connectable="0" parent="wWaZm-dn-pKSRPtOG2xE-14">
          <mxGeometry x="0.0222" relative="1" as="geometry">
            <mxPoint as="offset" />
          </mxGeometry>
        </mxCell>
        <mxCell id="wWaZm-dn-pKSRPtOG2xE-33" style="edgeStyle=orthogonalEdgeStyle;rounded=0;orthogonalLoop=1;jettySize=auto;html=1;exitX=0;exitY=0.5;exitDx=0;exitDy=0;entryX=0.5;entryY=0;entryDx=0;entryDy=0;" edge="1" parent="WIyWlLk6GJQsqaUBKTNV-1" source="wWaZm-dn-pKSRPtOG2xE-8" target="wWaZm-dn-pKSRPtOG2xE-32">
          <mxGeometry relative="1" as="geometry" />
        </mxCell>
        <mxCell id="wWaZm-dn-pKSRPtOG2xE-34" value="Não" style="edgeLabel;html=1;align=center;verticalAlign=middle;resizable=0;points=[];" vertex="1" connectable="0" parent="wWaZm-dn-pKSRPtOG2xE-33">
          <mxGeometry x="0.1404" y="2" relative="1" as="geometry">
            <mxPoint as="offset" />
          </mxGeometry>
        </mxCell>
        <mxCell id="wWaZm-dn-pKSRPtOG2xE-8" value="A letra existe na palavra?" style="rhombus;whiteSpace=wrap;html=1;" vertex="1" parent="WIyWlLk6GJQsqaUBKTNV-1">
          <mxGeometry x="470" y="360" width="120" height="100" as="geometry" />
        </mxCell>
        <mxCell id="wWaZm-dn-pKSRPtOG2xE-17" style="edgeStyle=orthogonalEdgeStyle;rounded=0;orthogonalLoop=1;jettySize=auto;html=1;entryX=0.5;entryY=0;entryDx=0;entryDy=0;" edge="1" parent="WIyWlLk6GJQsqaUBKTNV-1" source="wWaZm-dn-pKSRPtOG2xE-13" target="wWaZm-dn-pKSRPtOG2xE-16">
          <mxGeometry relative="1" as="geometry" />
        </mxCell>
        <mxCell id="wWaZm-dn-pKSRPtOG2xE-13" value="&lt;div&gt;Adicionar letra nos espaços correspondentes&lt;/div&gt;" style="rounded=1;whiteSpace=wrap;html=1;" vertex="1" parent="WIyWlLk6GJQsqaUBKTNV-1">
          <mxGeometry x="600" y="480" width="120" height="60" as="geometry" />
        </mxCell>
        <mxCell id="wWaZm-dn-pKSRPtOG2xE-22" style="edgeStyle=orthogonalEdgeStyle;rounded=0;orthogonalLoop=1;jettySize=auto;html=1;exitX=0.5;exitY=1;exitDx=0;exitDy=0;" edge="1" parent="WIyWlLk6GJQsqaUBKTNV-1" source="wWaZm-dn-pKSRPtOG2xE-16" target="wWaZm-dn-pKSRPtOG2xE-21">
          <mxGeometry relative="1" as="geometry" />
        </mxCell>
        <mxCell id="wWaZm-dn-pKSRPtOG2xE-23" value="Sim" style="edgeLabel;html=1;align=center;verticalAlign=middle;resizable=0;points=[];" vertex="1" connectable="0" parent="wWaZm-dn-pKSRPtOG2xE-22">
          <mxGeometry x="-0.1059" y="2" relative="1" as="geometry">
            <mxPoint x="-2" y="2" as="offset" />
          </mxGeometry>
        </mxCell>
        <mxCell id="wWaZm-dn-pKSRPtOG2xE-39" style="edgeStyle=orthogonalEdgeStyle;rounded=0;orthogonalLoop=1;jettySize=auto;html=1;exitX=1;exitY=0.5;exitDx=0;exitDy=0;" edge="1" parent="WIyWlLk6GJQsqaUBKTNV-1" source="wWaZm-dn-pKSRPtOG2xE-16" target="wWaZm-dn-pKSRPtOG2xE-6">
          <mxGeometry relative="1" as="geometry">
            <Array as="points">
              <mxPoint x="760" y="630" />
              <mxPoint x="760" y="300" />
            </Array>
          </mxGeometry>
        </mxCell>
        <mxCell id="wWaZm-dn-pKSRPtOG2xE-41" value="Não" style="edgeLabel;html=1;align=center;verticalAlign=middle;resizable=0;points=[];" vertex="1" connectable="0" parent="wWaZm-dn-pKSRPtOG2xE-39">
          <mxGeometry x="-0.8787" y="2" relative="1" as="geometry">
            <mxPoint x="12" y="-118" as="offset" />
          </mxGeometry>
        </mxCell>
        <mxCell id="wWaZm-dn-pKSRPtOG2xE-16" value="&lt;div&gt;Palavra está terminada?&lt;/div&gt;" style="rhombus;whiteSpace=wrap;html=1;" vertex="1" parent="WIyWlLk6GJQsqaUBKTNV-1">
          <mxGeometry x="605" y="585" width="110" height="90" as="geometry" />
        </mxCell>
        <mxCell id="wWaZm-dn-pKSRPtOG2xE-29" style="edgeStyle=orthogonalEdgeStyle;rounded=0;orthogonalLoop=1;jettySize=auto;html=1;entryX=0;entryY=0.5;entryDx=0;entryDy=0;exitX=0;exitY=0.5;exitDx=0;exitDy=0;" edge="1" parent="WIyWlLk6GJQsqaUBKTNV-1" source="wWaZm-dn-pKSRPtOG2xE-18" target="wWaZm-dn-pKSRPtOG2xE-6">
          <mxGeometry relative="1" as="geometry">
            <Array as="points">
              <mxPoint x="280" y="630" />
              <mxPoint x="280" y="300" />
            </Array>
          </mxGeometry>
        </mxCell>
        <mxCell id="wWaZm-dn-pKSRPtOG2xE-30" value="Sim" style="edgeLabel;html=1;align=center;verticalAlign=middle;resizable=0;points=[];" vertex="1" connectable="0" parent="wWaZm-dn-pKSRPtOG2xE-29">
          <mxGeometry x="0.0359" y="2" relative="1" as="geometry">
            <mxPoint y="123" as="offset" />
          </mxGeometry>
        </mxCell>
        <mxCell id="wWaZm-dn-pKSRPtOG2xE-37" style="edgeStyle=orthogonalEdgeStyle;rounded=0;orthogonalLoop=1;jettySize=auto;html=1;exitX=0.5;exitY=1;exitDx=0;exitDy=0;" edge="1" parent="WIyWlLk6GJQsqaUBKTNV-1" source="wWaZm-dn-pKSRPtOG2xE-18" target="wWaZm-dn-pKSRPtOG2xE-31">
          <mxGeometry relative="1" as="geometry" />
        </mxCell>
        <mxCell id="wWaZm-dn-pKSRPtOG2xE-38" value="Não" style="edgeLabel;html=1;align=center;verticalAlign=middle;resizable=0;points=[];" vertex="1" connectable="0" parent="wWaZm-dn-pKSRPtOG2xE-37">
          <mxGeometry x="-0.1958" y="-4" relative="1" as="geometry">
            <mxPoint as="offset" />
          </mxGeometry>
        </mxCell>
        <mxCell id="wWaZm-dn-pKSRPtOG2xE-18" value="Há mais jogadas?" style="rhombus;whiteSpace=wrap;html=1;" vertex="1" parent="WIyWlLk6GJQsqaUBKTNV-1">
          <mxGeometry x="335" y="585" width="90" height="90" as="geometry" />
        </mxCell>
        <mxCell id="wWaZm-dn-pKSRPtOG2xE-21" value="Ganhou" style="rounded=1;whiteSpace=wrap;html=1;" vertex="1" parent="WIyWlLk6GJQsqaUBKTNV-1">
          <mxGeometry x="600" y="730" width="120" height="60" as="geometry" />
        </mxCell>
        <mxCell id="wWaZm-dn-pKSRPtOG2xE-31" value="Perdeu" style="rounded=1;whiteSpace=wrap;html=1;" vertex="1" parent="WIyWlLk6GJQsqaUBKTNV-1">
          <mxGeometry x="320" y="730" width="120" height="60" as="geometry" />
        </mxCell>
        <mxCell id="wWaZm-dn-pKSRPtOG2xE-42" style="edgeStyle=orthogonalEdgeStyle;rounded=0;orthogonalLoop=1;jettySize=auto;html=1;" edge="1" parent="WIyWlLk6GJQsqaUBKTNV-1" source="wWaZm-dn-pKSRPtOG2xE-32" target="wWaZm-dn-pKSRPtOG2xE-18">
          <mxGeometry relative="1" as="geometry" />
        </mxCell>
        <mxCell id="wWaZm-dn-pKSRPtOG2xE-32" value="Adicionar parte ao boneco" style="rounded=1;whiteSpace=wrap;html=1;" vertex="1" parent="WIyWlLk6GJQsqaUBKTNV-1">
          <mxGeometry x="320" y="480" width="120" height="60" as="geometry" />
        </mxCell>
      </root>
    </mxGraphModel>
  </diagram>
</mxfile>
